<?xml version="1.0" encoding="utf-8"?>
<!-- Svg Vector Icons : http://www.onlinewebfonts.com/icon -->
<!DOCTYPE svg PUBLIC "-//W3C//DTD SVG 1.1//EN" "http://www.w3.org/Graphics/SVG/1.1/DTD/svg11.dtd">
<svg version="1.1" xmlns="http://www.w3.org/2000/svg" xmlns:xlink="http://www.w3.org/1999/xlink" x="0px" y="0px" viewBox="0 0 1000 1000" enable-background="new 0 0 1000 1000" xml:space="preserve">
<metadata> Svg Vector Icons : http://www.onlinewebfonts.com/icon </metadata>
<g><g transform="translate(0.000000,512.000000) scale(0.100000,-0.100000)"><path d="M3524.9,4818.8v-201.2h-906.2c-1059.5,0-1051.9,0-1212.8-160.9c-176.3-174.4-160.9,260.6-160.9-4542.7c0-4743.8-11.5-4360.6,139.9-4525.4c42.2-46,113-103.5,157.1-126.4l76.6-42.2h2941h2940.9l78.5,42.2c101.6,53.6,189.7,141.8,243.3,243.3c42.1,78.5,42.1,82.4,47.9,1253L7876-2069h438.8h440.7V-86v1983h-440.7H7876l-5.7,1174.5c-5.8,1099.8-7.7,1176.4-42.1,1239.6c-59.4,113-183.9,228-295,268.2c-95.8,36.4-149.4,38.3-1019.3,38.3h-919.6v201.2V5020H4559.5H3524.9V4818.8z M3524.9,3765.1v-124.5h1034.6h1032.7l5.8,120.7l5.8,118.8H6370h766.4l5.8-990.5l3.8-992.5h-469.4h-469.4V-86v-1983h469.4H7146l-3.8-990.5l-5.8-992.5H4559.5H1982.6l-3.8,3889.3c-3.8,2140.1,0,3925.7,5.8,3971.7l9.6,80.5h766.4h764.5V3765.1z M7912.4,852.9l431.1-431.1h-871.7H6600L7031,852.9c237.6,237.6,434.9,431.1,440.7,431.1S7674.8,1090.4,7912.4,852.9z M7906.6-1028.6l-434.9-436.8l-434.9,436.8L6600-593.7h871.7h871.7L7906.6-1028.6z"/><path d="M3992.4,2261.1c-195.4-40.2-388.9-197.3-473.2-379.3c-32.6-69-42.2-128.4-42.2-252.9c0-145.6,5.7-176.3,63.2-291.2c70.9-145.6,157.1-229.9,310.4-300.8c88.1-42.1,132.2-49.8,268.2-49.8c139.9,0,178.2,7.7,272.1,53.6c141.8,69,287.4,228,333.4,362.1c78.6,226.1,24.9,484.7-136,664.8C4452.2,2217,4189.7,2303.2,3992.4,2261.1z"/><path d="M3500,841.3c-170.5-40.2-331.5-176.3-463.7-388.9c-46-74.7-218.4-413.8-381.3-753c-346.8-716.5-354.4-741.5-226.1-867.9c99.6-99.6,183.9-115,304.6-55.6l92,46l316.1,611.2l316.1,611.2l9.6-1693.7c9.6-1643.9,11.5-1695.6,47.9-1756.9c42.2-70.9,164.8-137.9,251-137.9c78.6,0,182,59.4,233.7,134.1l42.2,63.2v896.7v898.6h67.1h65.1l5.8-898.6c5.7-879.4,5.7-900.5,46-954.1c137.9-185.9,356.4-185.9,494.3,0c40.2,53.6,40.2,67.1,49.8,1745.4l9.6,1691.8l297-574.8c162.9-318.1,316.1-599.7,341-628.4c153.3-185.8,463.7-59.4,463.7,187.8c0,67.1-597.8,1299-718.5,1481c-99.6,149.4-201.2,245.2-333.4,310.4c-86.2,42.1-103.5,44.1-672.5,47.9C3835.3,858.6,3540.2,850.9,3500,841.3z"/></g></g>
</svg>